<svg width="60" height="75" viewBox="0 0 60 75" fill="none" xmlns="http://www.w3.org/2000/svg">
<path d="M33.4673 16.6078C33.4265 16.4314 33.3406 16.2687 33.2179 16.1355C33.0953 16.0023 32.9401 15.9034 32.7676 15.8483C32.5951 15.7932 32.4113 15.784 32.2342 15.8214C32.0571 15.8588 31.8927 15.9417 31.7573 16.0618L22.7993 23.7958C22.7231 23.8611 22.6383 23.9156 22.5473 23.9578H16.5473C16.3881 23.9578 16.2355 24.021 16.123 24.1336C16.0105 24.2461 15.9473 24.3987 15.9473 24.5578V35.4178C15.9473 35.5769 16.0105 35.7296 16.123 35.8421C16.2355 35.9546 16.3881 36.0178 16.5473 36.0178H22.5473C22.6383 36.0601 22.7231 36.1146 22.7993 36.1798L31.7453 43.9378C31.8937 44.0677 32.0758 44.1531 32.2706 44.1843C32.4653 44.2155 32.665 44.1912 32.8466 44.1142C33.0282 44.0371 33.1844 43.9105 33.2974 43.7488C33.4103 43.5871 33.4754 43.3968 33.4853 43.1998V16.7998C33.4844 16.7354 33.4784 16.6712 33.4673 16.6078Z" fill="#b5b5b5"/>
<path d="M37.9137 36.5998C37.9137 36.5998 40.4577 33.6898 40.4577 30.0898C40.4577 26.4898 37.7997 23.5918 37.9137 23.5918" stroke="#b5b5b5" stroke-width="4" stroke-linecap="round" stroke-linejoin="round"/>
<path d="M42.2632 39.4078C42.2632 39.4078 45.8992 35.2438 45.8992 30.1078C45.8992 24.9718 42.1312 20.8018 42.2632 20.8018" stroke="#b5b5b5" stroke-width="4" stroke-linecap="round" stroke-linejoin="round"/>
</svg>
